<svg xmlns="http://www.w3.org/2000/svg" aria-hidden="true" style="position:absolute;width:0;height:0;overflow:hidden"><defs><symbol id="icon-twitter" viewBox="0 0 32 32"><path d="M29.001 7.947c-.956.412-1.997.709-3.069.825a5.318 5.318 0 0 0 2.344-2.938 10.504 10.504 0 0 1-3.381 1.287 5.308 5.308 0 0 0-3.894-1.684 5.327 5.327 0 0 0-5.328 5.331c0 .412.05.825.131 1.222A15.14 15.14 0 0 1 4.817 6.412a5.29 5.29 0 0 0-.725 2.691c0 1.85.941 3.481 2.375 4.441a5.375 5.375 0 0 1-2.409-.678v.066a5.328 5.328 0 0 0 4.272 5.231 5.63 5.63 0 0 1-1.403.181c-.347 0-.675-.034-1.006-.081a5.34 5.34 0 0 0 4.981 3.697 10.682 10.682 0 0 1-6.616 2.278c-.447 0-.859-.016-1.288-.066a15.086 15.086 0 0 0 8.184 2.391c9.8 0 15.163-8.119 15.163-15.166 0-.231 0-.463-.016-.694a11.484 11.484 0 0 0 2.672-2.756z"/></symbol><symbol id="icon-logo" viewBox="0 0 33 32"><path d="M0 0h32.615v32H0V0z"/></symbol><symbol id="icon-location" viewBox="0 0 32 32"><path d="M16 2.667A9.326 9.326 0 0 0 6.667 12c0 5.56 5.893 13.227 8.32 16.147.533.64 1.507.64 2.04 0C19.44 25.227 25.334 17.56 25.334 12a9.326 9.326 0 0 0-9.333-9.333zm0 12.666a3.333 3.333 0 1 1 0-6.667 3.333 3.333 0 0 1 0 6.667z"/></symbol><symbol id="icon-call" viewBox="0 0 32 32"><path d="m25.639 20.347-3.387-.387a2.647 2.647 0 0 0-2.187.76l-2.453 2.453a20.062 20.062 0 0 1-8.787-8.787l2.467-2.467a2.656 2.656 0 0 0 .76-2.187l-.387-3.36c-.076-.65-.388-1.25-.877-1.686s-1.121-.675-1.776-.674H6.705c-1.507 0-2.76 1.253-2.667 2.76.707 11.387 9.813 20.48 21.187 21.187 1.507.093 2.76-1.16 2.76-2.667v-2.307c.013-1.347-1-2.48-2.347-2.64z"/></symbol><symbol id="icon-mail" viewBox="0 0 32 32"><path d="M26.667 5.333H5.334A2.675 2.675 0 0 0 2.667 8v16c0 1.467 1.2 2.667 2.667 2.667h21.333c1.467 0 2.667-1.2 2.667-2.667V8c0-1.467-1.2-2.667-2.667-2.667zM26.133 11l-8.72 5.453a2.64 2.64 0 0 1-2.827 0L5.866 11a1.119 1.119 0 0 1-.543-.707 1.144 1.144 0 0 1 .137-.882 1.135 1.135 0 0 1 1.606-.331l8.933 5.587 8.933-5.587a1.147 1.147 0 0 1 .874-.179A1.135 1.135 0 0 1 26.132 11z"/></symbol><symbol id="icon-star" viewBox="0 0 32 32"><path d="m28.379 11.035-7.934-1.153-3.547-7.191a.994.994 0 0 0-.453-.453 1.004 1.004 0 0 0-1.341.453l-3.547 7.191-7.934 1.153a1.004 1.004 0 0 0-.554 1.707l5.741 5.597-1.356 7.903a1 1 0 0 0 1.45 1.053l7.097-3.731 7.097 3.731a.998.998 0 0 0 1.45-1.053l-1.356-7.903 5.741-5.597c.156-.153.259-.353.291-.572a.996.996 0 0 0-.844-1.134z"/></symbol><symbol id="icon-insta" viewBox="0 0 32 32"><path d="M27.928 11.073a8.701 8.701 0 0 0-.559-2.955 6.14 6.14 0 0 0-3.511-3.511 8.8 8.8 0 0 0-2.915-.56c-1.283-.057-1.689-.073-4.945-.073s-3.673 0-4.947.073a8.814 8.814 0 0 0-2.913.56 6.149 6.149 0 0 0-3.511 3.511 8.737 8.737 0 0 0-.559 2.913c-.057 1.284-.075 1.691-.075 4.947s0 3.672.075 4.947a8.79 8.79 0 0 0 .559 2.916 6.138 6.138 0 0 0 3.512 3.509 8.79 8.79 0 0 0 2.913.6c1.284.057 1.691.075 4.947.075s3.673 0 4.947-.075a8.804 8.804 0 0 0 2.915-.559c.797-.309 1.521-.781 2.125-1.386s1.076-1.328 1.386-2.125a8.77 8.77 0 0 0 .559-2.916c.057-1.283.075-1.689.075-4.947-.003-3.256-.003-3.669-.077-4.945zM15.991 22.136c-3.405 0-6.164-2.759-6.164-6.164a6.163 6.163 0 1 1 12.328 0 6.164 6.164 0 0 1-6.164 6.164zM22.4 11.017a1.435 1.435 0 0 1-1.017-2.453 1.437 1.437 0 1 1 1.016 2.453z"/><path d="M15.991 19.976a4.004 4.004 0 1 0 0-8.009 4.004 4.004 0 0 0 0 8.009z"/></symbol><symbol id="icon-fb" viewBox="0 0 32 32"><path d="M8.382 4A4.373 4.373 0 0 0 4 8.382v15.235a4.373 4.373 0 0 0 4.382 4.382h8.257v-9.383h-2.481v-3.378h2.481v-2.886c0-2.267 1.466-4.349 4.843-4.349 1.367 0 2.378.131 2.378.131l-.08 3.155s-1.031-.01-2.156-.01c-1.218 0-1.413.561-1.413 1.492v2.467h3.666l-.16 3.378h-3.506v9.383h3.406a4.373 4.373 0 0 0 4.382-4.382V8.382A4.373 4.373 0 0 0 23.617 4H8.382z"/></symbol><symbol id="icon-vk" viewBox="0 0 32 32"><path d="M28.772 9.14c.187-.62 0-1.075-.883-1.075h-2.924c-.744 0-1.084.393-1.271.825 0 0-1.487 3.625-3.593 5.976-.68.684-.991.9-1.361.9-.185 0-.455-.216-.455-.836V9.139c0-.744-.215-1.075-.835-1.075h-4.595c-.464 0-.744.344-.744.672 0 .704 1.053.867 1.161 2.851v4.304c0 .943-.169 1.115-.543 1.115-.991 0-3.401-3.639-4.832-7.804-.279-.809-.56-1.136-1.307-1.136H3.667c-.836 0-1.003.393-1.003.825 0 .776.991 4.616 4.615 9.695 2.416 3.468 5.817 5.348 8.916 5.348 1.857 0 2.087-.417 2.087-1.137v-2.621c0-.835.177-1.003.765-1.003.432 0 1.176.219 2.911 1.889 1.981 1.981 2.309 2.871 3.423 2.871h2.923c.835 0 1.252-.417 1.012-1.241-.263-.82-1.209-2.013-2.465-3.425-.683-.805-1.703-1.672-2.013-2.105-.433-.559-.308-.805 0-1.301.001.001 3.563-5.015 3.933-6.72z"/></symbol></defs></svg>